<svg width="24" height="24" viewBox="0 0 24 24" fill="none" xmlns="http://www.w3.org/2000/svg">
<path d="M21.0001 12C21.0001 7.03125 16.9688 3 12.0001 3C7.03131 3 3.00006 7.03125 3.00006 12C3.00006 16.9688 7.03131 21 12.0001 21C16.9688 21 21.0001 16.9688 21.0001 12Z" stroke="currentColor" stroke-width="1.5" stroke-miterlimit="10"/>
<path d="M11.7309 7.78358L11.9999 13.5L12.2685 7.78358C12.2702 7.74704 12.2644 7.71054 12.2514 7.67632C12.2385 7.6421 12.2188 7.61087 12.1934 7.58454C12.168 7.55822 12.1374 7.53735 12.1037 7.52322C12.07 7.50908 12.0337 7.50198 11.9971 7.50233V7.50233C11.961 7.50267 11.9253 7.51029 11.8921 7.52474C11.859 7.53918 11.8291 7.56016 11.8043 7.58641C11.7794 7.61266 11.7601 7.64365 11.7475 7.67752C11.7349 7.7114 11.7292 7.74747 11.7309 7.78358V7.78358Z" stroke="currentColor" stroke-width="1.5" stroke-linecap="round" stroke-linejoin="round"/>
<path d="M12.0001 17.2458C11.8146 17.2458 11.6334 17.1908 11.4792 17.0878C11.325 16.9848 11.2049 16.8384 11.1339 16.6671C11.063 16.4957 11.0444 16.3072 11.0806 16.1254C11.1167 15.9435 11.206 15.7765 11.3371 15.6454C11.4683 15.5143 11.6353 15.425 11.8172 15.3888C11.999 15.3526 12.1875 15.3712 12.3588 15.4422C12.5301 15.5131 12.6766 15.6333 12.7796 15.7874C12.8826 15.9416 12.9376 16.1229 12.9376 16.3083C12.9376 16.5569 12.8388 16.7954 12.663 16.9712C12.4872 17.147 12.2487 17.2458 12.0001 17.2458Z" fill="currentColor"/>
</svg>
