<svg
  width="38"
  height="38"
  viewBox="0 0 38 38"
  fill="none"
  xmlns="http://www.w3.org/2000/svg"
>
<g filter="url(#filter0_d_432_359)">
<path
      d="M1 7C1 3.68629 3.68629 1 7 1H31C34.3137 1 37 3.68629 37 7V31C37 34.3137 34.3137 37 31 37H7C3.68629 37 1 34.3137 1 31V7Z"
      fill="white"
    />
<path
      d="M19.5264 21.0674H18.002C18.0065 20.6436 18.043 20.2881 18.1113 20.001C18.1797 19.7093 18.2936 19.445 18.4531 19.208C18.6172 18.971 18.8337 18.7204 19.1025 18.4561C19.3122 18.2555 19.5013 18.0664 19.6699 17.8887C19.8385 17.7064 19.973 17.515 20.0732 17.3145C20.1735 17.1094 20.2236 16.8747 20.2236 16.6104C20.2236 16.3232 20.1758 16.0794 20.0801 15.8789C19.9844 15.6784 19.8431 15.5257 19.6562 15.4209C19.474 15.3161 19.2461 15.2637 18.9727 15.2637C18.7448 15.2637 18.5306 15.3092 18.3301 15.4004C18.1296 15.487 17.9678 15.6237 17.8447 15.8105C17.7217 15.9928 17.6556 16.2344 17.6465 16.5352H15.999C16.0081 15.9609 16.1449 15.4779 16.4092 15.0859C16.6735 14.694 17.029 14.4001 17.4756 14.2041C17.9222 14.0081 18.4212 13.9102 18.9727 13.9102C19.5833 13.9102 20.1051 14.015 20.5381 14.2246C20.971 14.4297 21.3014 14.7305 21.5293 15.127C21.7617 15.5189 21.8779 15.9928 21.8779 16.5488C21.8779 16.9499 21.7982 17.3145 21.6387 17.6426C21.4792 17.9661 21.2718 18.2692 21.0166 18.5518C20.7614 18.8298 20.4857 19.1077 20.1895 19.3857C19.9342 19.6182 19.7611 19.8711 19.6699 20.1445C19.5788 20.4134 19.5309 20.721 19.5264 21.0674ZM17.8652 23.2002C17.8652 22.9541 17.9495 22.7467 18.1182 22.5781C18.2868 22.4049 18.5169 22.3184 18.8086 22.3184C19.1003 22.3184 19.3304 22.4049 19.499 22.5781C19.6676 22.7467 19.752 22.9541 19.752 23.2002C19.752 23.4463 19.6676 23.6559 19.499 23.8291C19.3304 23.9977 19.1003 24.082 18.8086 24.082C18.5169 24.082 18.2868 23.9977 18.1182 23.8291C17.9495 23.6559 17.8652 23.4463 17.8652 23.2002Z"
      fill="black"
    />
</g>
<defs>
<filter
      id="filter0_d_432_359"
      x="0"
      y="0"
      width="38"
      height="38"
      filterUnits="userSpaceOnUse"
      color-interpolation-filters="sRGB"
    >
<feFlood flood-opacity="0" result="BackgroundImageFix" />
<feColorMatrix
        in="SourceAlpha"
        type="matrix"
        values="0 0 0 0 0 0 0 0 0 0 0 0 0 0 0 0 0 0 127 0"
        result="hardAlpha"
      />
<feOffset />
<feGaussianBlur stdDeviation="0.5" />
<feComposite in2="hardAlpha" operator="out" />
<feColorMatrix
        type="matrix"
        values="0 0 0 0 0 0 0 0 0 0 0 0 0 0 0 0 0 0 0.6 0"
      />
<feBlend
        mode="normal"
        in2="BackgroundImageFix"
        result="effect1_dropShadow_432_359"
      />
<feBlend
        mode="normal"
        in="SourceGraphic"
        in2="effect1_dropShadow_432_359"
        result="shape"
      />
</filter>
</defs>
</svg>
