<svg width="24" height="24" viewBox="0 0 24 24" fill="none" xmlns="http://www.w3.org/2000/svg">
<path d="M11.6251 3C6.86209 3 3.00006 6.86203 3.00006 11.625C3.00006 16.388 6.86209 20.25 11.6251 20.25C16.388 20.25 20.2501 16.388 20.2501 11.625C20.2501 6.86203 16.388 3 11.6251 3Z" stroke="currentColor" stroke-width="1.5" stroke-miterlimit="10"/>
<path d="M10.3126 10.3125H11.8126V15.75" stroke="currentColor" stroke-width="1.5" stroke-linecap="round" stroke-linejoin="round"/>
<path d="M9.74988 15.9375H13.8749" stroke="currentColor" stroke-width="1.5" stroke-miterlimit="10" stroke-linecap="round"/>
<path d="M11.6249 6.09375C11.3838 6.09375 11.1482 6.16523 10.9478 6.29915C10.7474 6.43306 10.5911 6.62341 10.4989 6.8461C10.4067 7.0688 10.3825 7.31385 10.4295 7.55027C10.4766 7.78668 10.5926 8.00384 10.7631 8.17429C10.9335 8.34473 11.1507 8.46081 11.3871 8.50783C11.6235 8.55486 11.8686 8.53072 12.0913 8.43848C12.314 8.34623 12.5043 8.19002 12.6382 7.9896C12.7722 7.78918 12.8436 7.55355 12.8436 7.3125C12.8436 6.98927 12.7152 6.67927 12.4867 6.45071C12.2581 6.22215 11.9481 6.09375 11.6249 6.09375Z" fill="currentColor"/>
</svg>
