<svg
  width="111"
  height="40"
  viewBox="0 0 111 40"
  fill="none"
  xmlns="http://www.w3.org/2000/svg"
>
<g filter="url(#filter0_d_246_89)">
<path
      d="M1 8C1 4.68629 3.68629 2 7 2H31C34.3137 2 37 4.68629 37 8V32C37 35.3137 34.3137 38 31 38H7C3.68629 38 1 35.3137 1 32V8Z"
      fill="white"
    />
<circle cx="10" cy="11" r="3" fill="black" />
<circle cx="28" cy="11" r="3" fill="black" />
<circle cx="19" cy="20" r="3" fill="black" />
<circle cx="10" cy="29" r="3" fill="black" />
<circle cx="28" cy="29" r="3" fill="black" />
</g>
<g filter="url(#filter1_d_246_89)">
<path
      d="M45.8057 32V7.82812H52.6289C54.7318 7.82812 56.5911 8.29297 58.207 9.22266C59.8229 10.1523 61.068 11.4749 61.9424 13.1904C62.8278 14.9059 63.276 16.876 63.2871 19.1006V20.6445C63.2871 22.9245 62.8444 24.9222 61.959 26.6377C61.0846 28.3532 59.8285 29.6702 58.1904 30.5889C56.5635 31.5075 54.6654 31.9779 52.4961 32H45.8057ZM48.9932 10.4512V29.3936H52.3467C54.8037 29.3936 56.7129 28.6299 58.0742 27.1025C59.4466 25.5752 60.1328 23.4004 60.1328 20.5781V19.167C60.1328 16.4222 59.4854 14.2917 58.1904 12.7754C56.9066 11.248 55.0804 10.4733 52.7119 10.4512H48.9932ZM71.2236 32H68.1523V14.0371H71.2236V32ZM67.9033 9.27246C67.9033 8.77441 68.0527 8.35384 68.3516 8.01074C68.6615 7.66764 69.1152 7.49609 69.7129 7.49609C70.3105 7.49609 70.7643 7.66764 71.0742 8.01074C71.3841 8.35384 71.5391 8.77441 71.5391 9.27246C71.5391 9.77051 71.3841 10.1855 71.0742 10.5176C70.7643 10.8496 70.3105 11.0156 69.7129 11.0156C69.1152 11.0156 68.6615 10.8496 68.3516 10.5176C68.0527 10.1855 67.9033 9.77051 67.9033 9.27246ZM83.6094 29.8252C84.7051 29.8252 85.6624 29.4932 86.4814 28.8291C87.3005 28.165 87.7542 27.335 87.8428 26.3389H90.748C90.6927 27.3682 90.3385 28.3477 89.6855 29.2773C89.0326 30.207 88.1582 30.9486 87.0625 31.502C85.9779 32.0553 84.8268 32.332 83.6094 32.332C81.1634 32.332 79.2155 31.5186 77.7656 29.8916C76.3268 28.2536 75.6074 26.0179 75.6074 23.1846V22.6699C75.6074 20.9212 75.9284 19.3662 76.5703 18.0049C77.2122 16.6436 78.1309 15.5866 79.3262 14.834C80.5326 14.0814 81.9548 13.7051 83.5928 13.7051C85.6071 13.7051 87.2783 14.3083 88.6064 15.5146C89.9456 16.721 90.6595 18.2871 90.748 20.2129H87.8428C87.7542 19.0508 87.3115 18.099 86.5146 17.3574C85.7288 16.6048 84.7549 16.2285 83.5928 16.2285C82.0322 16.2285 80.8203 16.793 79.957 17.9219C79.1048 19.0397 78.6787 20.6611 78.6787 22.7861V23.3672C78.6787 25.4368 79.1048 27.0306 79.957 28.1484C80.8092 29.2663 82.0267 29.8252 83.6094 29.8252ZM101.905 32.332C99.4704 32.332 97.4893 31.5352 95.9619 29.9414C94.4346 28.3366 93.6709 26.195 93.6709 23.5166V22.9521C93.6709 21.1702 94.0085 19.582 94.6836 18.1875C95.3698 16.7819 96.3216 15.6862 97.5391 14.9004C98.7676 14.1035 100.096 13.7051 101.523 13.7051C103.859 13.7051 105.674 14.4743 106.969 16.0127C108.264 17.5511 108.911 19.7536 108.911 22.6201V23.8984H96.7422C96.7865 25.6693 97.3011 27.1025 98.2861 28.1982C99.2822 29.2829 100.544 29.8252 102.071 29.8252C103.156 29.8252 104.075 29.6038 104.827 29.1611C105.58 28.7184 106.238 28.1318 106.803 27.4014L108.679 28.8623C107.174 31.1755 104.916 32.332 101.905 32.332ZM101.523 16.2285C100.284 16.2285 99.2435 16.6823 98.4023 17.5898C97.5612 18.4863 97.041 19.748 96.8418 21.375H105.84V21.1426C105.751 19.582 105.331 18.3757 104.578 17.5234C103.826 16.6602 102.807 16.2285 101.523 16.2285Z"
      fill="currentColor"
    />
</g>
<defs>
<filter
      id="filter0_d_246_89"
      x="0"
      y="1"
      width="38"
      height="38"
      filterUnits="userSpaceOnUse"
      color-interpolation-filters="sRGB"
    >
<feFlood flood-opacity="0" result="BackgroundImageFix" />
<feColorMatrix
        in="SourceAlpha"
        type="matrix"
        values="0 0 0 0 0 0 0 0 0 0 0 0 0 0 0 0 0 0 127 0"
        result="hardAlpha"
      />
<feOffset />
<feGaussianBlur stdDeviation="0.5" />
<feComposite in2="hardAlpha" operator="out" />
<feColorMatrix
        type="matrix"
        values="0 0 0 0 0 0 0 0 0 0 0 0 0 0 0 0 0 0 0.6 0"
      />
<feBlend
        mode="normal"
        in2="BackgroundImageFix"
        result="effect1_dropShadow_246_89"
      />
<feBlend
        mode="normal"
        in="SourceGraphic"
        in2="effect1_dropShadow_246_89"
        result="shape"
      />
</filter>
<filter
      id="filter1_d_246_89"
      x="43.8057"
      y="5.49609"
      width="67.1055"
      height="28.8359"
      filterUnits="userSpaceOnUse"
      color-interpolation-filters="sRGB"
    >
<feFlood flood-opacity="0" result="BackgroundImageFix" />
<feColorMatrix
        in="SourceAlpha"
        type="matrix"
        values="0 0 0 0 0 0 0 0 0 0 0 0 0 0 0 0 0 0 127 0"
        result="hardAlpha"
      />
<feOffset />
<feGaussianBlur stdDeviation="1" />
<feComposite in2="hardAlpha" operator="out" />
<feColorMatrix
        type="matrix"
        values="0 0 0 0 0 0 0 0 0 0 0 0 0 0 0 0 0 0 0.1 0"
      />
<feBlend
        mode="normal"
        in2="BackgroundImageFix"
        result="effect1_dropShadow_246_89"
      />
<feBlend
        mode="normal"
        in="SourceGraphic"
        in2="effect1_dropShadow_246_89"
        result="shape"
      />
</filter>
</defs>
</svg>
