<svg
  width="24"
  height="24"
  viewBox="0 0 24 24"
  fill="none"
  xmlns="http://www.w3.org/2000/svg"
>
<path
    d="M6.69656 6.69656L5.10562 5.10562M12 2.25V4.5V2.25ZM12 19.5V21.75V19.5ZM18.8944 5.10562L17.3034 6.69656L18.8944 5.10562ZM6.69656 17.3034L5.10562 18.8944L6.69656 17.3034ZM21.75 12H19.5H21.75ZM4.5 12H2.25H4.5ZM18.8944 18.8944L17.3034 17.3034L18.8944 18.8944Z"
    stroke="currentColor"
    stroke-width="1.5"
    stroke-miterlimit="10"
    stroke-linecap="round"
  />
<path
    d="M12 15.75C14.0711 15.75 15.75 14.0711 15.75 12C15.75 9.92893 14.0711 8.25 12 8.25C9.92893 8.25 8.25 9.92893 8.25 12C8.25 14.0711 9.92893 15.75 12 15.75Z"
    stroke="currentColor"
    stroke-width="1.5"
    stroke-miterlimit="10"
    stroke-linecap="round"
  />
</svg>
