<svg width="24" height="24" viewBox="0 0 24 24" fill="none" xmlns="http://www.w3.org/2000/svg">
<path d="M4.01108 20.918H19.9889C20.2484 20.9179 20.5035 20.8506 20.7291 20.7224C20.9548 20.5943 21.1434 20.4099 21.2765 20.1871C21.4095 19.9643 21.4825 19.7108 21.4883 19.4513C21.494 19.1919 21.4324 18.9354 21.3094 18.7069L13.3209 3.87094C12.7542 2.81906 11.2458 2.81906 10.6791 3.87094L2.69062 18.7069C2.56759 18.9354 2.50595 19.1919 2.51172 19.4513C2.51749 19.7108 2.59047 19.9643 2.72353 20.1871C2.85658 20.4099 3.04516 20.5943 3.27084 20.7224C3.49652 20.8506 3.75158 20.9179 4.01108 20.918V20.918Z" stroke="currentColor" stroke-width="1.5" stroke-linecap="round" stroke-linejoin="round"/>
<path d="M11.731 9.15892L12 14.8777L12.2686 9.16127C12.2703 9.12472 12.2645 9.08823 12.2515 9.054C12.2386 9.01978 12.2188 8.98855 12.1934 8.96223C12.168 8.93591 12.1375 8.91504 12.1038 8.9009C12.0701 8.88677 12.0338 8.87966 11.9972 8.88002V8.88002C11.9613 8.88037 11.9258 8.88792 11.8928 8.90222C11.8598 8.91652 11.83 8.93728 11.8052 8.96328C11.7804 8.98928 11.761 9.01998 11.7483 9.05359C11.7355 9.08719 11.7296 9.12301 11.731 9.15892V9.15892Z" stroke="currentColor" stroke-width="1.5" stroke-linecap="round" stroke-linejoin="round"/>
<path d="M12.0001 18.6211C11.8146 18.6211 11.6334 18.5661 11.4792 18.4631C11.325 18.3601 11.2049 18.2137 11.1339 18.0424C11.063 17.8711 11.0444 17.6826 11.0806 17.5007C11.1167 17.3188 11.206 17.1518 11.3371 17.0207C11.4683 16.8896 11.6353 16.8003 11.8172 16.7641C11.999 16.7279 12.1875 16.7465 12.3588 16.8175C12.5301 16.8884 12.6766 17.0086 12.7796 17.1627C12.8826 17.3169 12.9376 17.4982 12.9376 17.6836C12.9376 17.9322 12.8388 18.1707 12.663 18.3465C12.4872 18.5223 12.2487 18.6211 12.0001 18.6211Z" fill="currentColor"/>
</svg>
